<svg width="2409" height="1561" viewBox="0 0 2409 1561" fill="none" xmlns="http://www.w3.org/2000/svg">
<path d="M918.5 631.5C918.5 603.886 940.886 581.5 968.5 581.5H2358.5C2386.11 581.5 2408.5 603.886 2408.5 631.5V1014.5C2408.5 1042.11 2386.11 1064.5 2358.5 1064.5H968.5C940.886 1064.5 918.5 1042.11 918.5 1014.5V631.5Z" fill="black"/>
<path d="M113.558 864.468C84.1379 844.65 84.1379 801.35 113.558 781.532L922.815 236.374C956.026 214.002 1000.75 237.799 1000.75 277.843L1000.75 1368.16C1000.75 1408.2 956.026 1432 922.815 1409.63L113.558 864.468Z" fill="black"/>
<path d="M867 547C867 519.386 889.386 497 917 497H2307C2334.61 497 2357 519.386 2357 547V930C2357 957.614 2334.61 980 2307 980H917C889.386 980 867 957.614 867 930V547Z" fill="white"/>
<path d="M62.0576 779.968C32.6379 760.15 32.6379 716.85 62.0576 697.032L871.315 151.874C904.526 129.502 949.25 153.299 949.25 193.343L949.25 1283.66C949.25 1323.7 904.526 1347.5 871.315 1325.13L62.0576 779.968Z" fill="white"/>
</svg>
