<svg width="37" height="36" viewBox="0 0 37 36" fill="none" xmlns="http://www.w3.org/2000/svg">
<path d="M16.1989 26.0756L28.6824 13.5921L26.2034 11.1131L16.1989 21.1176L11.1523 16.0711L8.67332 18.5501L16.1989 26.0756ZM18.6779 35.6375C16.2284 35.6375 13.9264 35.1727 11.7721 34.243C9.6177 33.3134 7.74369 32.0518 6.15005 30.4581C4.5564 28.8645 3.29477 26.9905 2.36514 24.8361C1.43552 22.6817 0.970703 20.3798 0.970703 17.9303C0.970703 15.4808 1.43552 13.1789 2.36514 11.0245C3.29477 8.87014 4.5564 6.99614 6.15005 5.40249C7.74369 3.80885 9.6177 2.54721 11.7721 1.61758C13.9264 0.687958 16.2284 0.223145 18.6779 0.223145C21.1274 0.223145 23.4293 0.687958 25.5837 1.61758C27.738 2.54721 29.612 3.80885 31.2057 5.40249C32.7993 6.99614 34.061 8.87014 34.9906 11.0245C35.9202 13.1789 36.385 15.4808 36.385 17.9303C36.385 20.3798 35.9202 22.6817 34.9906 24.8361C34.061 26.9905 32.7993 28.8645 31.2057 30.4581C29.612 32.0518 27.738 33.3134 25.5837 34.243C23.4293 35.1727 21.1274 35.6375 18.6779 35.6375Z" fill="#00DB1D"/>
</svg>
