<svg width="42" height="42" viewBox="0 0 42 42" fill="none" xmlns="http://www.w3.org/2000/svg">
<g filter="url(#filter0_d_136_240)">
<path d="M0 10C0 4.47715 4.47715 0 10 0H30C35.5228 0 40 4.47715 40 10V30C40 35.5228 35.5228 40 30 40H10C4.47715 40 0 35.5228 0 30V10Z" fill="white" shape-rendering="crispEdges"/>
<path d="M10 1H30C34.9706 1 39 5.02944 39 10V30C39 34.9706 34.9706 39 30 39H10C5.02944 39 1 34.9706 1 30V10C1 5.02944 5.02944 1 10 1Z" stroke="black" stroke-width="2" shape-rendering="crispEdges"/>
<line x1="11.5" y1="13.5" x2="28.5" y2="13.5" stroke="black" stroke-width="3" stroke-linecap="round"/>
<line x1="11.5" y1="21.5" x2="28.5" y2="21.5" stroke="black" stroke-width="3" stroke-linecap="round"/>
<line x1="11.5" y1="29.5" x2="28.5" y2="29.5" stroke="black" stroke-width="3" stroke-linecap="round"/>
</g>
<defs>
<filter id="filter0_d_136_240" x="0" y="0" width="42" height="42" filterUnits="userSpaceOnUse" color-interpolation-filters="sRGB">
<feFlood flood-opacity="0" result="BackgroundImageFix"/>
<feColorMatrix in="SourceAlpha" type="matrix" values="0 0 0 0 0 0 0 0 0 0 0 0 0 0 0 0 0 0 127 0" result="hardAlpha"/>
<feOffset dx="2" dy="2"/>
<feComposite in2="hardAlpha" operator="out"/>
<feColorMatrix type="matrix" values="0 0 0 0 0 0 0 0 0 0 0 0 0 0 0 0 0 0 1 0"/>
<feBlend mode="normal" in2="BackgroundImageFix" result="effect1_dropShadow_136_240"/>
<feBlend mode="normal" in="SourceGraphic" in2="effect1_dropShadow_136_240" result="shape"/>
</filter>
</defs>
</svg>
