<svg width="59" height="59" viewBox="0 0 59 59" fill="none" xmlns="http://www.w3.org/2000/svg">
<mask id="mask0_104_423" style="mask-type:alpha" maskUnits="userSpaceOnUse" x="0" y="0" width="59" height="59">
<rect width="59" height="59" fill="#D9D9D9"/>
</mask>
<g mask="url(#mask0_104_423)">
<path d="M19.6673 49.1665H39.334V41.7915C39.334 39.0873 38.3711 36.7724 36.4454 34.8467C34.5197 32.921 32.2048 31.9582 29.5007 31.9582C26.7965 31.9582 24.4816 32.921 22.5559 34.8467C20.6302 36.7724 19.6673 39.0873 19.6673 41.7915V49.1665ZM9.83398 54.0832V49.1665H14.7507V41.7915C14.7507 39.2922 15.3345 36.9465 16.5022 34.7545C17.6699 32.5625 19.2986 30.811 21.3882 29.4998C19.2986 28.1887 17.6699 26.4372 16.5022 24.2452C15.3345 22.0531 14.7507 19.7075 14.7507 17.2082V9.83317H9.83398V4.9165H49.1673V9.83317H44.2506V17.2082C44.2506 19.7075 43.6668 22.0531 42.4991 24.2452C41.3314 26.4372 39.7027 28.1887 37.6132 29.4998C39.7027 30.811 41.3314 32.5625 42.4991 34.7545C43.6668 36.9465 44.2506 39.2922 44.2506 41.7915V49.1665H49.1673V54.0832H9.83398Z" fill="white"/>
</g>
</svg>
