<svg width="31" height="39" viewBox="0 0 31 39" fill="none" xmlns="http://www.w3.org/2000/svg">
<path d="M8 34.5H23V28.875C23 26.8125 22.2656 25.0469 20.7969 23.5781C19.3281 22.1094 17.5625 21.375 15.5 21.375C13.4375 21.375 11.6719 22.1094 10.2031 23.5781C8.73438 25.0469 8 26.8125 8 28.875V34.5ZM0.5 38.25V34.5H4.25V28.875C4.25 26.9688 4.69531 25.1797 5.58594 23.5078C6.47656 21.8359 7.71875 20.5 9.3125 19.5C7.71875 18.5 6.47656 17.1641 5.58594 15.4922C4.69531 13.8203 4.25 12.0312 4.25 10.125V4.5H0.5V0.75H30.5V4.5H26.75V10.125C26.75 12.0312 26.3047 13.8203 25.4141 15.4922C24.5234 17.1641 23.2812 18.5 21.6875 19.5C23.2812 20.5 24.5234 21.8359 25.4141 23.5078C26.3047 25.1797 26.75 26.9688 26.75 28.875V34.5H30.5V38.25H0.5Z" fill="#FF7300"/>
</svg>
