<svg width="75" height="75" viewBox="0 0 75 75" fill="none" xmlns="http://www.w3.org/2000/svg">
<mask id="mask0_104_369" style="mask-type:alpha" maskUnits="userSpaceOnUse" x="0" y="0" width="75" height="75">
<rect width="74.4972" height="74.4972" fill="#D9D9D9"/>
</mask>
<g mask="url(#mask0_104_369)">
<path d="M32.9038 51.5271L54.7874 29.6436L50.4417 25.2979L32.9038 42.8358L24.0573 33.9893L19.7116 38.3349L32.9038 51.5271ZM37.2495 68.289C32.9555 68.289 28.9203 67.4742 25.1437 65.8446C21.3671 64.2149 18.082 62.0033 15.2883 59.2097C12.4947 56.416 10.2831 53.1309 8.65342 49.3543C7.0238 45.5777 6.20898 41.5424 6.20898 37.2485C6.20898 32.9546 7.0238 28.9193 8.65342 25.1427C10.2831 21.3661 12.4947 18.081 15.2883 15.2874C18.082 12.4937 21.3671 10.2821 25.1437 8.65245C28.9203 7.02282 32.9555 6.20801 37.2495 6.20801C41.5434 6.20801 45.5787 7.02282 49.3553 8.65245C53.1319 10.2821 56.417 12.4937 59.2106 15.2874C62.0043 18.081 64.2159 21.3661 65.8455 25.1427C67.4752 28.9193 68.29 32.9546 68.29 37.2485C68.29 41.5424 67.4752 45.5777 65.8455 49.3543C64.2159 53.1309 62.0043 56.416 59.2106 59.2097C56.417 62.0033 53.1319 64.2149 49.3553 65.8446C45.5787 67.4742 41.5434 68.289 37.2495 68.289Z" fill="white"/>
</g>
</svg>
